<svg width="1097" height="42" viewBox="0 0 1097 42" fill="none" xmlns="http://www.w3.org/2000/svg">
<path d="M892.358 28H890.511L895.852 13.4545H897.67L903.011 28H901.165L896.818 15.7557H896.705L892.358 28ZM893.04 22.3182H900.483V23.8807H893.04V22.3182ZM911.925 23.5398V17.0909H913.601V28H911.925V26.1534H911.811C911.555 26.7074 911.158 27.1785 910.618 27.5668C910.078 27.9503 909.396 28.142 908.572 28.142C907.891 28.142 907.285 27.9929 906.754 27.6946C906.224 27.3916 905.807 26.937 905.504 26.331C905.201 25.7202 905.05 24.9508 905.05 24.0227V17.0909H906.726V23.9091C906.726 24.7045 906.948 25.339 907.393 25.8125C907.843 26.286 908.416 26.5227 909.112 26.5227C909.529 26.5227 909.953 26.4162 910.384 26.2031C910.819 25.9901 911.184 25.6634 911.477 25.223C911.776 24.7827 911.925 24.2216 911.925 23.5398ZM918.347 13.4545V28H916.671V13.4545H918.347ZM924.627 28.2557C923.936 28.2557 923.308 28.1255 922.745 27.8651C922.182 27.5999 921.734 27.2188 921.403 26.7216C921.071 26.2197 920.906 25.6136 920.906 24.9034C920.906 24.2784 921.029 23.7718 921.275 23.3835C921.521 22.9905 921.85 22.6828 922.262 22.4602C922.674 22.2377 923.129 22.072 923.626 21.9631C924.128 21.8494 924.632 21.7595 925.138 21.6932C925.801 21.608 926.339 21.544 926.751 21.5014C927.167 21.4541 927.47 21.3759 927.66 21.267C927.854 21.1581 927.951 20.9687 927.951 20.6989V20.642C927.951 19.9413 927.759 19.3968 927.376 19.0085C926.997 18.6203 926.422 18.4261 925.65 18.4261C924.85 18.4261 924.222 18.6013 923.768 18.9517C923.313 19.3021 922.994 19.6761 922.809 20.0739L921.218 19.5057C921.502 18.8428 921.881 18.3267 922.354 17.9574C922.833 17.5833 923.353 17.3229 923.917 17.1761C924.485 17.0246 925.044 16.9489 925.593 16.9489C925.943 16.9489 926.346 16.9915 926.8 17.0767C927.26 17.1572 927.702 17.3253 928.129 17.581C928.559 17.8366 928.917 18.2225 929.201 18.7386C929.485 19.2547 929.627 19.946 929.627 20.8125V28H927.951V26.5227H927.866C927.752 26.7595 927.563 27.0128 927.298 27.2827C927.032 27.5526 926.68 27.7822 926.239 27.9716C925.799 28.161 925.262 28.2557 924.627 28.2557ZM924.883 26.75C925.546 26.75 926.104 26.6198 926.559 26.3594C927.018 26.099 927.364 25.7628 927.596 25.3509C927.833 24.9389 927.951 24.5057 927.951 24.0511V22.517C927.88 22.6023 927.724 22.6804 927.482 22.7514C927.246 22.8177 926.971 22.8769 926.658 22.929C926.351 22.9763 926.05 23.0189 925.756 23.0568C925.468 23.09 925.233 23.1184 925.053 23.142C924.618 23.1989 924.21 23.2912 923.832 23.419C923.458 23.5421 923.155 23.7292 922.923 23.9801C922.695 24.2263 922.582 24.5625 922.582 24.9886C922.582 25.571 922.797 26.0114 923.228 26.3097C923.664 26.6032 924.215 26.75 924.883 26.75ZM940.414 19.5341L938.908 19.9602C938.813 19.7093 938.674 19.4654 938.489 19.2287C938.309 18.9872 938.063 18.7884 937.75 18.6321C937.438 18.4759 937.038 18.3977 936.55 18.3977C935.882 18.3977 935.326 18.5516 934.881 18.8594C934.441 19.1624 934.221 19.5483 934.221 20.017C934.221 20.4337 934.372 20.7628 934.675 21.0043C934.978 21.2457 935.452 21.447 936.096 21.608L937.715 22.0057C938.69 22.2424 939.417 22.6046 939.895 23.0923C940.373 23.5753 940.613 24.1979 940.613 24.9602C940.613 25.5852 940.433 26.1439 940.073 26.6364C939.718 27.1288 939.221 27.517 938.581 27.8011C937.942 28.0852 937.199 28.2273 936.351 28.2273C935.239 28.2273 934.318 27.9858 933.588 27.5028C932.859 27.0199 932.398 26.3144 932.203 25.3864L933.794 24.9886C933.946 25.5758 934.232 26.0161 934.654 26.3097C935.08 26.6032 935.636 26.75 936.323 26.75C937.104 26.75 937.724 26.5843 938.184 26.2528C938.648 25.9167 938.88 25.5142 938.88 25.0455C938.88 24.6667 938.747 24.3494 938.482 24.0938C938.217 23.8333 937.81 23.6392 937.26 23.5114L935.442 23.0852C934.443 22.8485 933.709 22.4815 933.24 21.9844C932.776 21.4825 932.544 20.8551 932.544 20.1023C932.544 19.4867 932.717 18.9422 933.063 18.4688C933.413 17.9953 933.889 17.6236 934.49 17.3537C935.096 17.0838 935.783 16.9489 936.55 16.9489C937.63 16.9489 938.477 17.1856 939.093 17.6591C939.713 18.1326 940.153 18.7576 940.414 19.5341ZM953.192 28.2273C952.208 28.2273 951.344 27.9929 950.6 27.5241C949.862 27.0554 949.284 26.3996 948.867 25.5568C948.455 24.714 948.249 23.7292 948.249 22.6023C948.249 21.4659 948.455 20.474 948.867 19.6264C949.284 18.7789 949.862 18.1207 950.6 17.652C951.344 17.1832 952.208 16.9489 953.192 16.9489C954.177 16.9489 955.039 17.1832 955.778 17.652C956.521 18.1207 957.099 18.7789 957.511 19.6264C957.927 20.474 958.136 21.4659 958.136 22.6023C958.136 23.7292 957.927 24.714 957.511 25.5568C957.099 26.3996 956.521 27.0554 955.778 27.5241C955.039 27.9929 954.177 28.2273 953.192 28.2273ZM953.192 26.7216C953.941 26.7216 954.556 26.5298 955.039 26.1463C955.522 25.7628 955.879 25.2585 956.112 24.6335C956.344 24.0085 956.46 23.3314 956.46 22.6023C956.46 21.8731 956.344 21.1937 956.112 20.5639C955.879 19.9342 955.522 19.4252 955.039 19.0369C954.556 18.6487 953.941 18.4545 953.192 18.4545C952.444 18.4545 951.829 18.6487 951.346 19.0369C950.863 19.4252 950.505 19.9342 950.273 20.5639C950.041 21.1937 949.925 21.8731 949.925 22.6023C949.925 23.3314 950.041 24.0085 950.273 24.6335C950.505 25.2585 950.863 25.7628 951.346 26.1463C951.829 26.5298 952.444 26.7216 953.192 26.7216ZM962.37 21.4375V28H960.694V17.0909H962.314V18.7955H962.456C962.711 18.2415 963.1 17.7964 963.62 17.4602C964.141 17.1193 964.814 16.9489 965.637 16.9489C966.376 16.9489 967.022 17.1004 967.576 17.4034C968.13 17.7017 968.561 18.1562 968.869 18.767C969.177 19.3731 969.331 20.1402 969.331 21.0682V28H967.654V21.1818C967.654 20.3248 967.432 19.6572 966.987 19.179C966.542 18.696 965.931 18.4545 965.154 18.4545C964.619 18.4545 964.141 18.5705 963.72 18.8026C963.303 19.0346 962.974 19.3731 962.733 19.8182C962.491 20.2633 962.37 20.803 962.37 21.4375ZM974.07 13.4545V28H972.393V13.4545H974.07ZM977.14 28V17.0909H978.816V28H977.14ZM977.992 15.2727C977.665 15.2727 977.383 15.1615 977.147 14.9389C976.915 14.7164 976.799 14.4489 976.799 14.1364C976.799 13.8239 976.915 13.5563 977.147 13.3338C977.383 13.1113 977.665 13 977.992 13C978.319 13 978.598 13.1113 978.83 13.3338C979.067 13.5563 979.185 13.8239 979.185 14.1364C979.185 14.4489 979.067 14.7164 978.83 14.9389C978.598 15.1615 978.319 15.2727 977.992 15.2727ZM983.562 21.4375V28H981.886V17.0909H983.505V18.7955H983.647C983.903 18.2415 984.291 17.7964 984.812 17.4602C985.333 17.1193 986.005 16.9489 986.829 16.9489C987.567 16.9489 988.214 17.1004 988.768 17.4034C989.322 17.7017 989.753 18.1562 990.06 18.767C990.368 19.3731 990.522 20.1402 990.522 21.0682V28H988.846V21.1818C988.846 20.3248 988.623 19.6572 988.178 19.179C987.733 18.696 987.122 18.4545 986.346 18.4545C985.811 18.4545 985.333 18.5705 984.911 18.8026C984.495 19.0346 984.165 19.3731 983.924 19.8182C983.683 20.2633 983.562 20.803 983.562 21.4375ZM998.159 28.2273C997.108 28.2273 996.201 27.9953 995.439 27.5312C994.681 27.0625 994.096 26.4091 993.684 25.571C993.277 24.7282 993.074 23.7481 993.074 22.6307C993.074 21.5133 993.277 20.5284 993.684 19.6761C994.096 18.8191 994.669 18.1515 995.403 17.6733C996.142 17.1903 997.003 16.9489 997.988 16.9489C998.556 16.9489 999.118 17.0436 999.672 17.233C1000.23 17.4223 1000.73 17.7301 1001.18 18.1562C1001.64 18.5777 1002 19.1364 1002.27 19.8324C1002.54 20.5284 1002.68 21.3854 1002.68 22.4034V23.1136H994.267V21.6648H1000.97C1000.97 21.0492 1000.85 20.5 1000.6 20.017C1000.36 19.5341 1000.01 19.1529 999.565 18.8736C999.12 18.5942 998.594 18.4545 997.988 18.4545C997.321 18.4545 996.743 18.6203 996.255 18.9517C995.772 19.2784 995.401 19.7045 995.14 20.2301C994.88 20.7557 994.75 21.3191 994.75 21.9205V22.8864C994.75 23.7102 994.892 24.4086 995.176 24.9815C995.465 25.5497 995.865 25.983 996.376 26.2812C996.887 26.5748 997.482 26.7216 998.159 26.7216C998.599 26.7216 998.997 26.66 999.352 26.5369C999.712 26.4091 1000.02 26.2197 1000.28 25.9688C1000.54 25.7131 1000.74 25.3958 1000.89 25.017L1002.51 25.4716C1002.33 26.0208 1002.05 26.5038 1001.65 26.9205C1001.24 27.3324 1000.75 27.6544 1000.15 27.8864C999.563 28.1136 998.897 28.2273 998.159 28.2273ZM1015.25 32.3182C1014.44 32.3182 1013.75 32.214 1013.17 32.0057C1012.58 31.8021 1012.1 31.5322 1011.71 31.196C1011.33 30.8646 1011.02 30.5095 1010.79 30.1307L1012.13 29.1932C1012.28 29.392 1012.47 29.6193 1012.7 29.875C1012.94 30.1354 1013.25 30.3603 1013.66 30.5497C1014.06 30.7438 1014.6 30.8409 1015.25 30.8409C1016.13 30.8409 1016.86 30.6278 1017.43 30.2017C1018.01 29.7756 1018.29 29.108 1018.29 28.1989V25.983H1018.15C1018.03 26.1818 1017.85 26.428 1017.63 26.7216C1017.4 27.0104 1017.08 27.2685 1016.66 27.4957C1016.24 27.7183 1015.68 27.8295 1014.97 27.8295C1014.09 27.8295 1013.3 27.6212 1012.6 27.2045C1011.9 26.7879 1011.35 26.1818 1010.94 25.3864C1010.54 24.5909 1010.34 23.625 1010.34 22.4886C1010.34 21.3712 1010.54 20.3982 1010.93 19.5696C1011.32 18.7363 1011.87 18.0923 1012.57 17.6378C1013.27 17.1785 1014.08 16.9489 1015 16.9489C1015.71 16.9489 1016.27 17.0672 1016.69 17.304C1017.11 17.536 1017.43 17.8011 1017.65 18.0994C1017.88 18.393 1018.06 18.6345 1018.18 18.8239H1018.35V17.0909H1019.97V28.3125C1019.97 29.25 1019.76 30.0123 1019.33 30.5994C1018.91 31.1913 1018.34 31.6245 1017.63 31.8991C1016.92 32.1785 1016.13 32.3182 1015.25 32.3182ZM1015.2 26.3239C1015.87 26.3239 1016.44 26.17 1016.9 25.8622C1017.37 25.5545 1017.72 25.1117 1017.96 24.5341C1018.2 23.9564 1018.32 23.2652 1018.32 22.4602C1018.32 21.6742 1018.2 20.9806 1017.97 20.3793C1017.73 19.7779 1017.38 19.3068 1016.92 18.9659C1016.45 18.625 1015.88 18.4545 1015.2 18.4545C1014.49 18.4545 1013.9 18.6345 1013.42 18.9943C1012.95 19.3542 1012.6 19.8371 1012.36 20.4432C1012.13 21.0492 1012.02 21.7216 1012.02 22.4602C1012.02 23.2178 1012.13 23.8878 1012.37 24.4702C1012.61 25.0478 1012.97 25.5024 1013.44 25.8338C1013.91 26.1605 1014.5 26.3239 1015.2 26.3239ZM1023.04 28V17.0909H1024.66V18.7386H1024.77C1024.97 18.1989 1025.33 17.7609 1025.85 17.4247C1026.37 17.0885 1026.96 16.9205 1027.61 16.9205C1027.73 16.9205 1027.89 16.9228 1028.07 16.9276C1028.26 16.9323 1028.4 16.9394 1028.49 16.9489V18.6534C1028.44 18.6392 1028.31 18.6179 1028.1 18.5895C1027.9 18.5563 1027.69 18.5398 1027.47 18.5398C1026.94 18.5398 1026.47 18.651 1026.05 18.8736C1025.64 19.0914 1025.31 19.3944 1025.07 19.7827C1024.83 20.1662 1024.71 20.6042 1024.71 21.0966V28H1023.04ZM1033.69 28.2557C1033 28.2557 1032.37 28.1255 1031.81 27.8651C1031.24 27.5999 1030.8 27.2188 1030.47 26.7216C1030.13 26.2197 1029.97 25.6136 1029.97 24.9034C1029.97 24.2784 1030.09 23.7718 1030.34 23.3835C1030.58 22.9905 1030.91 22.6828 1031.32 22.4602C1031.74 22.2377 1032.19 22.072 1032.69 21.9631C1033.19 21.8494 1033.69 21.7595 1034.2 21.6932C1034.86 21.608 1035.4 21.544 1035.81 21.5014C1036.23 21.4541 1036.53 21.3759 1036.72 21.267C1036.92 21.1581 1037.01 20.9687 1037.01 20.6989V20.642C1037.01 19.9413 1036.82 19.3968 1036.44 19.0085C1036.06 18.6203 1035.48 18.4261 1034.71 18.4261C1033.91 18.4261 1033.28 18.6013 1032.83 18.9517C1032.38 19.3021 1032.06 19.6761 1031.87 20.0739L1030.28 19.5057C1030.56 18.8428 1030.94 18.3267 1031.42 17.9574C1031.9 17.5833 1032.42 17.3229 1032.98 17.1761C1033.55 17.0246 1034.11 16.9489 1034.66 16.9489C1035.01 16.9489 1035.41 16.9915 1035.86 17.0767C1036.32 17.1572 1036.76 17.3253 1037.19 17.581C1037.62 17.8366 1037.98 18.2225 1038.26 18.7386C1038.55 19.2547 1038.69 19.946 1038.69 20.8125V28H1037.01V26.5227H1036.93C1036.81 26.7595 1036.63 27.0128 1036.36 27.2827C1036.09 27.5526 1035.74 27.7822 1035.3 27.9716C1034.86 28.161 1034.32 28.2557 1033.69 28.2557ZM1033.95 26.75C1034.61 26.75 1035.17 26.6198 1035.62 26.3594C1036.08 26.099 1036.43 25.7628 1036.66 25.3509C1036.9 24.9389 1037.01 24.5057 1037.01 24.0511V22.517C1036.94 22.6023 1036.79 22.6804 1036.54 22.7514C1036.31 22.8177 1036.03 22.8769 1035.72 22.929C1035.41 22.9763 1035.11 23.0189 1034.82 23.0568C1034.53 23.09 1034.3 23.1184 1034.12 23.142C1033.68 23.1989 1033.27 23.2912 1032.89 23.419C1032.52 23.5421 1032.22 23.7292 1031.99 23.9801C1031.76 24.2263 1031.64 24.5625 1031.64 24.9886C1031.64 25.571 1031.86 26.0114 1032.29 26.3097C1032.73 26.6032 1033.28 26.75 1033.95 26.75ZM1050.28 17.0909L1046.24 28H1044.54L1040.51 17.0909H1042.32L1045.34 25.7841H1045.45L1048.46 17.0909H1050.28ZM1055.37 28.2557C1054.68 28.2557 1054.05 28.1255 1053.49 27.8651C1052.92 27.5999 1052.48 27.2188 1052.14 26.7216C1051.81 26.2197 1051.65 25.6136 1051.65 24.9034C1051.65 24.2784 1051.77 23.7718 1052.02 23.3835C1052.26 22.9905 1052.59 22.6828 1053 22.4602C1053.42 22.2377 1053.87 22.072 1054.37 21.9631C1054.87 21.8494 1055.37 21.7595 1055.88 21.6932C1056.54 21.608 1057.08 21.544 1057.49 21.5014C1057.91 21.4541 1058.21 21.3759 1058.4 21.267C1058.6 21.1581 1058.69 20.9687 1058.69 20.6989V20.642C1058.69 19.9413 1058.5 19.3968 1058.12 19.0085C1057.74 18.6203 1057.16 18.4261 1056.39 18.4261C1055.59 18.4261 1054.96 18.6013 1054.51 18.9517C1054.06 19.3021 1053.74 19.6761 1053.55 20.0739L1051.96 19.5057C1052.24 18.8428 1052.62 18.3267 1053.1 17.9574C1053.57 17.5833 1054.1 17.3229 1054.66 17.1761C1055.23 17.0246 1055.79 16.9489 1056.34 16.9489C1056.69 16.9489 1057.09 16.9915 1057.54 17.0767C1058 17.1572 1058.44 17.3253 1058.87 17.581C1059.3 17.8366 1059.66 18.2225 1059.94 18.7386C1060.23 19.2547 1060.37 19.946 1060.37 20.8125V28H1058.69V26.5227H1058.61C1058.49 26.7595 1058.3 27.0128 1058.04 27.2827C1057.77 27.5526 1057.42 27.7822 1056.98 27.9716C1056.54 28.161 1056 28.2557 1055.37 28.2557ZM1055.62 26.75C1056.29 26.75 1056.85 26.6198 1057.3 26.3594C1057.76 26.099 1058.11 25.7628 1058.34 25.3509C1058.57 24.9389 1058.69 24.5057 1058.69 24.0511V22.517C1058.62 22.6023 1058.47 22.6804 1058.22 22.7514C1057.99 22.8177 1057.71 22.8769 1057.4 22.929C1057.09 22.9763 1056.79 23.0189 1056.5 23.0568C1056.21 23.09 1055.98 23.1184 1055.8 23.142C1055.36 23.1989 1054.95 23.2912 1054.57 23.419C1054.2 23.5421 1053.9 23.7292 1053.66 23.9801C1053.44 24.2263 1053.32 24.5625 1053.32 24.9886C1053.32 25.571 1053.54 26.0114 1053.97 26.3097C1054.41 26.6032 1054.96 26.75 1055.62 26.75ZM1067.55 28.2273C1066.64 28.2273 1065.84 27.9976 1065.14 27.5384C1064.44 27.0743 1063.9 26.4209 1063.51 25.5781C1063.11 24.7306 1062.92 23.7292 1062.92 22.5739C1062.92 21.428 1063.11 20.4337 1063.51 19.5909C1063.9 18.7481 1064.45 18.0971 1065.15 17.6378C1065.85 17.1785 1066.66 16.9489 1067.58 16.9489C1068.29 16.9489 1068.85 17.0672 1069.26 17.304C1069.68 17.536 1069.99 17.8011 1070.21 18.0994C1070.43 18.393 1070.61 18.6345 1070.73 18.8239H1070.87V13.4545H1072.55V28H1070.93V26.3239H1070.73C1070.61 26.5227 1070.43 26.7737 1070.2 27.0767C1069.98 27.375 1069.65 27.6425 1069.23 27.8793C1068.81 28.1113 1068.25 28.2273 1067.55 28.2273ZM1067.78 26.7216C1068.45 26.7216 1069.02 26.5464 1069.48 26.196C1069.94 25.8409 1070.3 25.3509 1070.54 24.7259C1070.78 24.0961 1070.9 23.3693 1070.9 22.5455C1070.9 21.7311 1070.78 21.0185 1070.55 20.4077C1070.31 19.7921 1069.96 19.3139 1069.49 18.973C1069.03 18.6274 1068.46 18.4545 1067.78 18.4545C1067.06 18.4545 1066.47 18.6368 1066 19.0014C1065.53 19.3613 1065.18 19.8513 1064.94 20.4716C1064.71 21.0871 1064.59 21.7784 1064.59 22.5455C1064.59 23.322 1064.71 24.0275 1064.95 24.6619C1065.19 25.2917 1065.55 25.7936 1066.01 26.1676C1066.49 26.5369 1067.07 26.7216 1067.78 26.7216ZM1079.06 28.2557C1078.37 28.2557 1077.74 28.1255 1077.18 27.8651C1076.62 27.5999 1076.17 27.2188 1075.84 26.7216C1075.5 26.2197 1075.34 25.6136 1075.34 24.9034C1075.34 24.2784 1075.46 23.7718 1075.71 23.3835C1075.95 22.9905 1076.28 22.6828 1076.7 22.4602C1077.11 22.2377 1077.56 22.072 1078.06 21.9631C1078.56 21.8494 1079.07 21.7595 1079.57 21.6932C1080.23 21.608 1080.77 21.544 1081.18 21.5014C1081.6 21.4541 1081.9 21.3759 1082.09 21.267C1082.29 21.1581 1082.38 20.9687 1082.38 20.6989V20.642C1082.38 19.9413 1082.19 19.3968 1081.81 19.0085C1081.43 18.6203 1080.86 18.4261 1080.08 18.4261C1079.28 18.4261 1078.66 18.6013 1078.2 18.9517C1077.75 19.3021 1077.43 19.6761 1077.24 20.0739L1075.65 19.5057C1075.94 18.8428 1076.31 18.3267 1076.79 17.9574C1077.27 17.5833 1077.79 17.3229 1078.35 17.1761C1078.92 17.0246 1079.48 16.9489 1080.03 16.9489C1080.38 16.9489 1080.78 16.9915 1081.23 17.0767C1081.69 17.1572 1082.14 17.3253 1082.56 17.581C1082.99 17.8366 1083.35 18.2225 1083.63 18.7386C1083.92 19.2547 1084.06 19.946 1084.06 20.8125V28H1082.38V26.5227H1082.3C1082.19 26.7595 1082 27.0128 1081.73 27.2827C1081.47 27.5526 1081.11 27.7822 1080.67 27.9716C1080.23 28.161 1079.7 28.2557 1079.06 28.2557ZM1079.32 26.75C1079.98 26.75 1080.54 26.6198 1080.99 26.3594C1081.45 26.099 1081.8 25.7628 1082.03 25.3509C1082.27 24.9389 1082.38 24.5057 1082.38 24.0511V22.517C1082.31 22.6023 1082.16 22.6804 1081.92 22.7514C1081.68 22.8177 1081.4 22.8769 1081.09 22.929C1080.78 22.9763 1080.48 23.0189 1080.19 23.0568C1079.9 23.09 1079.67 23.1184 1079.49 23.142C1079.05 23.1989 1078.64 23.2912 1078.27 23.419C1077.89 23.5421 1077.59 23.7292 1077.36 23.9801C1077.13 24.2263 1077.02 24.5625 1077.02 24.9886C1077.02 25.571 1077.23 26.0114 1077.66 26.3097C1078.1 26.6032 1078.65 26.75 1079.32 26.75ZM1094.85 19.5341L1093.34 19.9602C1093.25 19.7093 1093.11 19.4654 1092.92 19.2287C1092.74 18.9872 1092.5 18.7884 1092.18 18.6321C1091.87 18.4759 1091.47 18.3977 1090.98 18.3977C1090.32 18.3977 1089.76 18.5516 1089.31 18.8594C1088.87 19.1624 1088.65 19.5483 1088.65 20.017C1088.65 20.4337 1088.81 20.7628 1089.11 21.0043C1089.41 21.2457 1089.89 21.447 1090.53 21.608L1092.15 22.0057C1093.12 22.2424 1093.85 22.6046 1094.33 23.0923C1094.81 23.5753 1095.05 24.1979 1095.05 24.9602C1095.05 25.5852 1094.87 26.1439 1094.51 26.6364C1094.15 27.1288 1093.65 27.517 1093.01 27.8011C1092.38 28.0852 1091.63 28.2273 1090.78 28.2273C1089.67 28.2273 1088.75 27.9858 1088.02 27.5028C1087.29 27.0199 1086.83 26.3144 1086.64 25.3864L1088.23 24.9886C1088.38 25.5758 1088.67 26.0161 1089.09 26.3097C1089.51 26.6032 1090.07 26.75 1090.76 26.75C1091.54 26.75 1092.16 26.5843 1092.62 26.2528C1093.08 25.9167 1093.31 25.5142 1093.31 25.0455C1093.31 24.6667 1093.18 24.3494 1092.92 24.0938C1092.65 23.8333 1092.24 23.6392 1091.69 23.5114L1089.88 23.0852C1088.88 22.8485 1088.14 22.4815 1087.67 21.9844C1087.21 21.4825 1086.98 20.8551 1086.98 20.1023C1086.98 19.4867 1087.15 18.9422 1087.5 18.4688C1087.85 17.9953 1088.32 17.6236 1088.92 17.3537C1089.53 17.0838 1090.22 16.9489 1090.98 16.9489C1092.06 16.9489 1092.91 17.1856 1093.53 17.6591C1094.15 18.1326 1094.59 18.7576 1094.85 19.5341Z" fill="#122235"/>
<path d="M864 19.3333C864 17.735 862.867 16.3983 861.365 16.0767C861.965 15.075 862.333 13.9167 862.333 12.6667C862.333 8.99 859.343 6 855.667 6C853.138 6 850.965 7.42833 849.833 9.50667C848.702 7.42833 846.528 6 844 6C840.323 6 837.333 8.99 837.333 12.6667C837.333 14.17 837.853 15.545 838.695 16.66C838.274 16.9676 837.932 17.3699 837.695 17.8343C837.459 18.2987 837.335 18.8122 837.333 19.3333V32.6667C837.333 34.505 838.828 36 840.667 36H860.667C862.505 36 864 34.505 864 32.6667V28.27L870.667 31.6033V19.9367L864 23.27V19.3333ZM855.667 9.33333C857.505 9.33333 859 10.8283 859 12.6667C859 14.505 857.505 16 855.667 16C853.828 16 852.333 14.505 852.333 12.6667C852.333 10.8283 853.828 9.33333 855.667 9.33333ZM844 9.33333C845.838 9.33333 847.333 10.8283 847.333 12.6667C847.333 14.505 845.838 16 844 16C842.162 16 840.667 14.505 840.667 12.6667C840.667 10.8283 842.162 9.33333 844 9.33333ZM840.667 32.6667V19.3333H860.667L860.67 32.6667H840.667Z" fill="#247BA0"/>
<path d="M494.165 25.017V23.5682L500.557 13.4545H501.608V15.6989H500.898L496.068 23.3409V23.4545H504.676V25.017H494.165ZM501.011 28V24.5767V23.902V13.4545H502.688V28H501.011ZM514.667 21.4375V28H512.991V13.4545H514.667V18.7955H514.809C515.065 18.232 515.449 17.7846 515.96 17.4531C516.476 17.117 517.163 16.9489 518.02 16.9489C518.763 16.9489 519.414 17.098 519.973 17.3963C520.531 17.6899 520.965 18.142 521.272 18.7528C521.585 19.3589 521.741 20.1307 521.741 21.0682V28H520.065V21.1818C520.065 20.3153 519.84 19.6454 519.39 19.1719C518.945 18.6937 518.327 18.4545 517.537 18.4545C516.987 18.4545 516.495 18.5705 516.059 18.8026C515.628 19.0346 515.288 19.3731 515.037 19.8182C514.79 20.2633 514.667 20.803 514.667 21.4375ZM529.239 28.2273C528.254 28.2273 527.39 27.9929 526.647 27.5241C525.908 27.0554 525.331 26.3996 524.914 25.5568C524.502 24.714 524.296 23.7292 524.296 22.6023C524.296 21.4659 524.502 20.474 524.914 19.6264C525.331 18.7789 525.908 18.1207 526.647 17.652C527.39 17.1832 528.254 16.9489 529.239 16.9489C530.224 16.9489 531.086 17.1832 531.825 17.652C532.568 18.1207 533.146 18.7789 533.558 19.6264C533.974 20.474 534.183 21.4659 534.183 22.6023C534.183 23.7292 533.974 24.714 533.558 25.5568C533.146 26.3996 532.568 27.0554 531.825 27.5241C531.086 27.9929 530.224 28.2273 529.239 28.2273ZM529.239 26.7216C529.987 26.7216 530.603 26.5298 531.086 26.1463C531.569 25.7628 531.926 25.2585 532.158 24.6335C532.39 24.0085 532.506 23.3314 532.506 22.6023C532.506 21.8731 532.39 21.1937 532.158 20.5639C531.926 19.9342 531.569 19.4252 531.086 19.0369C530.603 18.6487 529.987 18.4545 529.239 18.4545C528.491 18.4545 527.876 18.6487 527.393 19.0369C526.91 19.4252 526.552 19.9342 526.32 20.5639C526.088 21.1937 525.972 21.8731 525.972 22.6023C525.972 23.3314 526.088 24.0085 526.32 24.6335C526.552 25.2585 526.91 25.7628 527.393 26.1463C527.876 26.5298 528.491 26.7216 529.239 26.7216ZM536.741 28V17.0909H538.36V18.7386H538.474C538.673 18.1989 539.033 17.7609 539.554 17.4247C540.074 17.0885 540.662 16.9205 541.315 16.9205C541.438 16.9205 541.592 16.9228 541.777 16.9276C541.961 16.9323 542.101 16.9394 542.196 16.9489V18.6534C542.139 18.6392 542.009 18.6179 541.805 18.5895C541.606 18.5563 541.395 18.5398 541.173 18.5398C540.643 18.5398 540.169 18.651 539.752 18.8736C539.341 19.0914 539.014 19.3944 538.772 19.7827C538.536 20.1662 538.417 20.6042 538.417 21.0966V28H536.741ZM547.393 28.2557C546.701 28.2557 546.074 28.1255 545.511 27.8651C544.947 27.5999 544.5 27.2188 544.168 26.7216C543.837 26.2197 543.671 25.6136 543.671 24.9034C543.671 24.2784 543.794 23.7718 544.04 23.3835C544.287 22.9905 544.616 22.6828 545.028 22.4602C545.44 22.2377 545.894 22.072 546.391 21.9631C546.893 21.8494 547.397 21.7595 547.904 21.6932C548.567 21.608 549.104 21.544 549.516 21.5014C549.933 21.4541 550.236 21.3759 550.425 21.267C550.62 21.1581 550.717 20.9687 550.717 20.6989V20.642C550.717 19.9413 550.525 19.3968 550.141 19.0085C549.763 18.6203 549.187 18.4261 548.415 18.4261C547.615 18.4261 546.988 18.6013 546.533 18.9517C546.079 19.3021 545.759 19.6761 545.575 20.0739L543.984 19.5057C544.268 18.8428 544.647 18.3267 545.12 17.9574C545.598 17.5833 546.119 17.3229 546.683 17.1761C547.251 17.0246 547.809 16.9489 548.359 16.9489C548.709 16.9489 549.112 16.9915 549.566 17.0767C550.025 17.1572 550.468 17.3253 550.894 17.581C551.325 17.8366 551.683 18.2225 551.967 18.7386C552.251 19.2547 552.393 19.946 552.393 20.8125V28H550.717V26.5227H550.631C550.518 26.7595 550.328 27.0128 550.063 27.2827C549.798 27.5526 549.445 27.7822 549.005 27.9716C548.565 28.161 548.027 28.2557 547.393 28.2557ZM547.648 26.75C548.311 26.75 548.87 26.6198 549.325 26.3594C549.784 26.099 550.129 25.7628 550.362 25.3509C550.598 24.9389 550.717 24.5057 550.717 24.0511V22.517C550.646 22.6023 550.489 22.6804 550.248 22.7514C550.011 22.8177 549.737 22.8769 549.424 22.929C549.116 22.9763 548.816 23.0189 548.522 23.0568C548.233 23.09 547.999 23.1184 547.819 23.142C547.383 23.1989 546.976 23.2912 546.597 23.419C546.223 23.5421 545.92 23.7292 545.688 23.9801C545.461 24.2263 545.347 24.5625 545.347 24.9886C545.347 25.571 545.563 26.0114 545.994 26.3097C546.429 26.6032 546.981 26.75 547.648 26.75ZM563.179 19.5341L561.674 19.9602C561.579 19.7093 561.439 19.4654 561.255 19.2287C561.075 18.9872 560.828 18.7884 560.516 18.6321C560.203 18.4759 559.803 18.3977 559.316 18.3977C558.648 18.3977 558.092 18.5516 557.647 18.8594C557.206 19.1624 556.986 19.5483 556.986 20.017C556.986 20.4337 557.138 20.7628 557.441 21.0043C557.744 21.2457 558.217 21.447 558.861 21.608L560.48 22.0057C561.456 22.2424 562.183 22.6046 562.661 23.0923C563.139 23.5753 563.378 24.1979 563.378 24.9602C563.378 25.5852 563.198 26.1439 562.838 26.6364C562.483 27.1288 561.986 27.517 561.347 27.8011C560.708 28.0852 559.964 28.2273 559.117 28.2273C558.004 28.2273 557.083 27.9858 556.354 27.5028C555.625 27.0199 555.163 26.3144 554.969 25.3864L556.56 24.9886C556.712 25.5758 556.998 26.0161 557.419 26.3097C557.846 26.6032 558.402 26.75 559.088 26.75C559.87 26.75 560.49 26.5843 560.949 26.2528C561.413 25.9167 561.645 25.5142 561.645 25.0455C561.645 24.6667 561.513 24.3494 561.248 24.0938C560.982 23.8333 560.575 23.6392 560.026 23.5114L558.208 23.0852C557.209 22.8485 556.475 22.4815 556.006 21.9844C555.542 21.4825 555.31 20.8551 555.31 20.1023C555.31 19.4867 555.483 18.9422 555.828 18.4688C556.179 17.9953 556.655 17.6236 557.256 17.3537C557.862 17.0838 558.549 16.9489 559.316 16.9489C560.395 16.9489 561.243 17.1856 561.858 17.6591C562.479 18.1326 562.919 18.7576 563.179 19.5341ZM575.646 28.2273C574.737 28.2273 573.934 27.9976 573.238 27.5384C572.542 27.0743 571.997 26.4209 571.604 25.5781C571.211 24.7306 571.015 23.7292 571.015 22.5739C571.015 21.428 571.211 20.4337 571.604 19.5909C571.997 18.7481 572.544 18.0971 573.245 17.6378C573.946 17.1785 574.755 16.9489 575.674 16.9489C576.384 16.9489 576.945 17.0672 577.357 17.304C577.774 17.536 578.091 17.8011 578.309 18.0994C578.531 18.393 578.704 18.6345 578.827 18.8239H578.969V13.4545H580.646V28H579.026V26.3239H578.827C578.704 26.5227 578.529 26.7737 578.302 27.0767C578.075 27.375 577.75 27.6425 577.329 27.8793C576.907 28.1113 576.346 28.2273 575.646 28.2273ZM575.873 26.7216C576.545 26.7216 577.113 26.5464 577.577 26.196C578.041 25.8409 578.394 25.3509 578.636 24.7259C578.877 24.0961 578.998 23.3693 578.998 22.5455C578.998 21.7311 578.879 21.0185 578.643 20.4077C578.406 19.7921 578.056 19.3139 577.592 18.973C577.128 18.6274 576.555 18.4545 575.873 18.4545C575.163 18.4545 574.571 18.6368 574.097 19.0014C573.629 19.3613 573.276 19.8513 573.039 20.4716C572.807 21.0871 572.691 21.7784 572.691 22.5455C572.691 23.322 572.809 24.0275 573.046 24.6619C573.288 25.2917 573.643 25.7936 574.112 26.1676C574.585 26.5369 575.172 26.7216 575.873 26.7216ZM588.522 28.2273C587.471 28.2273 586.564 27.9953 585.802 27.5312C585.044 27.0625 584.46 26.4091 584.048 25.571C583.64 24.7282 583.437 23.7481 583.437 22.6307C583.437 21.5133 583.64 20.5284 584.048 19.6761C584.46 18.8191 585.032 18.1515 585.766 17.6733C586.505 17.1903 587.367 16.9489 588.352 16.9489C588.92 16.9489 589.481 17.0436 590.035 17.233C590.589 17.4223 591.093 17.7301 591.548 18.1562C592.002 18.5777 592.364 19.1364 592.634 19.8324C592.904 20.5284 593.039 21.3854 593.039 22.4034V23.1136H584.63V21.6648H591.335C591.335 21.0492 591.211 20.5 590.965 20.017C590.724 19.5341 590.378 19.1529 589.928 18.8736C589.483 18.5942 588.958 18.4545 588.352 18.4545C587.684 18.4545 587.106 18.6203 586.619 18.9517C586.136 19.2784 585.764 19.7045 585.504 20.2301C585.243 20.7557 585.113 21.3191 585.113 21.9205V22.8864C585.113 23.7102 585.255 24.4086 585.539 24.9815C585.828 25.5497 586.228 25.983 586.739 26.2812C587.251 26.5748 587.845 26.7216 588.522 26.7216C588.962 26.7216 589.36 26.66 589.715 26.5369C590.075 26.4091 590.385 26.2197 590.646 25.9688C590.906 25.7131 591.107 25.3958 591.249 25.017L592.869 25.4716C592.698 26.0208 592.412 26.5038 592.009 26.9205C591.607 27.3324 591.11 27.6544 590.518 27.8864C589.926 28.1136 589.261 28.2273 588.522 28.2273ZM605.646 28.2273C604.623 28.2273 603.742 27.9858 603.004 27.5028C602.265 27.0199 601.697 26.3546 601.299 25.5071C600.901 24.6596 600.702 23.6913 600.702 22.6023C600.702 21.4943 600.906 20.5166 601.313 19.669C601.725 18.8168 602.298 18.1515 603.032 17.6733C603.771 17.1903 604.632 16.9489 605.617 16.9489C606.384 16.9489 607.076 17.0909 607.691 17.375C608.307 17.6591 608.811 18.0568 609.204 18.5682C609.597 19.0795 609.841 19.6761 609.935 20.358H608.259C608.131 19.8608 607.847 19.4205 607.407 19.0369C606.971 18.6487 606.384 18.4545 605.646 18.4545C604.992 18.4545 604.419 18.625 603.927 18.9659C603.439 19.3021 603.058 19.7779 602.783 20.3935C602.513 21.0043 602.379 21.7216 602.379 22.5455C602.379 23.3883 602.511 24.1222 602.776 24.7472C603.046 25.3722 603.425 25.8575 603.913 26.2031C604.405 26.5488 604.983 26.7216 605.646 26.7216C606.081 26.7216 606.477 26.6458 606.832 26.4943C607.187 26.3428 607.487 26.125 607.734 25.8409C607.98 25.5568 608.155 25.2159 608.259 24.8182H609.935C609.841 25.4621 609.606 26.0421 609.232 26.5582C608.863 27.0696 608.373 27.4768 607.762 27.7798C607.156 28.0781 606.451 28.2273 605.646 28.2273ZM616.817 28.2273C615.833 28.2273 614.969 27.9929 614.225 27.5241C613.487 27.0554 612.909 26.3996 612.492 25.5568C612.08 24.714 611.874 23.7292 611.874 22.6023C611.874 21.4659 612.08 20.474 612.492 19.6264C612.909 18.7789 613.487 18.1207 614.225 17.652C614.969 17.1832 615.833 16.9489 616.817 16.9489C617.802 16.9489 618.664 17.1832 619.403 17.652C620.146 18.1207 620.724 18.7789 621.136 19.6264C621.552 20.474 621.761 21.4659 621.761 22.6023C621.761 23.7292 621.552 24.714 621.136 25.5568C620.724 26.3996 620.146 27.0554 619.403 27.5241C618.664 27.9929 617.802 28.2273 616.817 28.2273ZM616.817 26.7216C617.566 26.7216 618.181 26.5298 618.664 26.1463C619.147 25.7628 619.504 25.2585 619.737 24.6335C619.969 24.0085 620.085 23.3314 620.085 22.6023C620.085 21.8731 619.969 21.1937 619.737 20.5639C619.504 19.9342 619.147 19.4252 618.664 19.0369C618.181 18.6487 617.566 18.4545 616.817 18.4545C616.069 18.4545 615.454 18.6487 614.971 19.0369C614.488 19.4252 614.13 19.9342 613.898 20.5639C613.666 21.1937 613.55 21.8731 613.55 22.6023C613.55 23.3314 613.666 24.0085 613.898 24.6335C614.13 25.2585 614.488 25.7628 614.971 26.1463C615.454 26.5298 616.069 26.7216 616.817 26.7216ZM625.995 21.4375V28H624.319V17.0909H625.939V18.7955H626.081C626.336 18.2415 626.725 17.7964 627.245 17.4602C627.766 17.1193 628.439 16.9489 629.262 16.9489C630.001 16.9489 630.647 17.1004 631.201 17.4034C631.755 17.7017 632.186 18.1562 632.494 18.767C632.802 19.3731 632.956 20.1402 632.956 21.0682V28H631.279V21.1818C631.279 20.3248 631.057 19.6572 630.612 19.179C630.167 18.696 629.556 18.4545 628.779 18.4545C628.244 18.4545 627.766 18.5705 627.345 18.8026C626.928 19.0346 626.599 19.3731 626.358 19.8182C626.116 20.2633 625.995 20.803 625.995 21.4375ZM640.763 17.0909V18.5114H635.109V17.0909H640.763ZM636.757 14.4773H638.433V24.875C638.433 25.3485 638.502 25.7036 638.639 25.9403C638.781 26.1723 638.961 26.3286 639.179 26.4091C639.402 26.4848 639.636 26.5227 639.882 26.5227C640.067 26.5227 640.218 26.5133 640.337 26.4943C640.455 26.4706 640.55 26.4517 640.621 26.4375L640.962 27.9432C640.848 27.9858 640.689 28.0284 640.486 28.071C640.282 28.1184 640.024 28.142 639.712 28.142C639.238 28.142 638.774 28.0402 638.32 27.8366C637.87 27.633 637.496 27.3229 637.197 26.9062C636.904 26.4896 636.757 25.964 636.757 25.3295V14.4773ZM647.741 28.2273C646.69 28.2273 645.783 27.9953 645.021 27.5312C644.263 27.0625 643.678 26.4091 643.266 25.571C642.859 24.7282 642.656 23.7481 642.656 22.6307C642.656 21.5133 642.859 20.5284 643.266 19.6761C643.678 18.8191 644.251 18.1515 644.985 17.6733C645.724 17.1903 646.585 16.9489 647.57 16.9489C648.138 16.9489 648.7 17.0436 649.254 17.233C649.808 17.4223 650.312 17.7301 650.766 18.1562C651.221 18.5777 651.583 19.1364 651.853 19.8324C652.123 20.5284 652.258 21.3854 652.258 22.4034V23.1136H643.849V21.6648H650.553C650.553 21.0492 650.43 20.5 650.184 20.017C649.942 19.5341 649.597 19.1529 649.147 18.8736C648.702 18.5942 648.176 18.4545 647.57 18.4545C646.903 18.4545 646.325 18.6203 645.837 18.9517C645.354 19.2784 644.983 19.7045 644.722 20.2301C644.462 20.7557 644.332 21.3191 644.332 21.9205V22.8864C644.332 23.7102 644.474 24.4086 644.758 24.9815C645.047 25.5497 645.447 25.983 645.958 26.2812C646.469 26.5748 647.064 26.7216 647.741 26.7216C648.181 26.7216 648.579 26.66 648.934 26.5369C649.294 26.4091 649.604 26.2197 649.864 25.9688C650.125 25.7131 650.326 25.3958 650.468 25.017L652.087 25.4716C651.917 26.0208 651.63 26.5038 651.228 26.9205C650.826 27.3324 650.328 27.6544 649.737 27.8864C649.145 28.1136 648.479 28.2273 647.741 28.2273ZM661.683 23.5398V17.0909H663.359V28H661.683V26.1534H661.569C661.313 26.7074 660.915 27.1785 660.376 27.5668C659.836 27.9503 659.154 28.142 658.33 28.142C657.648 28.142 657.042 27.9929 656.512 27.6946C655.982 27.3916 655.565 26.937 655.262 26.331C654.959 25.7202 654.808 24.9508 654.808 24.0227V17.0909H656.484V23.9091C656.484 24.7045 656.706 25.339 657.151 25.8125C657.601 26.286 658.174 26.5227 658.87 26.5227C659.287 26.5227 659.71 26.4162 660.141 26.2031C660.577 25.9901 660.942 25.6634 661.235 25.223C661.533 24.7827 661.683 24.2216 661.683 23.5398ZM658.33 15.6136L660.063 12.3182H662.023L659.808 15.6136H658.33ZM670.548 28.2273C669.639 28.2273 668.836 27.9976 668.14 27.5384C667.444 27.0743 666.9 26.4209 666.507 25.5781C666.114 24.7306 665.917 23.7292 665.917 22.5739C665.917 21.428 666.114 20.4337 666.507 19.5909C666.9 18.7481 667.447 18.0971 668.147 17.6378C668.848 17.1785 669.658 16.9489 670.576 16.9489C671.287 16.9489 671.848 17.0672 672.26 17.304C672.676 17.536 672.993 17.8011 673.211 18.0994C673.434 18.393 673.607 18.6345 673.73 18.8239H673.872V13.4545H675.548V28H673.929V26.3239H673.73C673.607 26.5227 673.431 26.7737 673.204 27.0767C672.977 27.375 672.653 27.6425 672.231 27.8793C671.81 28.1113 671.249 28.2273 670.548 28.2273ZM670.775 26.7216C671.448 26.7216 672.016 26.5464 672.48 26.196C672.944 25.8409 673.297 25.3509 673.538 24.7259C673.779 24.0961 673.9 23.3693 673.9 22.5455C673.9 21.7311 673.782 21.0185 673.545 20.4077C673.308 19.7921 672.958 19.3139 672.494 18.973C672.03 18.6274 671.457 18.4545 670.775 18.4545C670.065 18.4545 669.473 18.6368 669 19.0014C668.531 19.3613 668.178 19.8513 667.941 20.4716C667.709 21.0871 667.593 21.7784 667.593 22.5455C667.593 23.322 667.712 24.0275 667.949 24.6619C668.19 25.2917 668.545 25.7936 669.014 26.1676C669.487 26.5369 670.074 26.7216 670.775 26.7216ZM683.282 28.2273C682.297 28.2273 681.433 27.9929 680.69 27.5241C679.951 27.0554 679.374 26.3996 678.957 25.5568C678.545 24.714 678.339 23.7292 678.339 22.6023C678.339 21.4659 678.545 20.474 678.957 19.6264C679.374 18.7789 679.951 18.1207 680.69 17.652C681.433 17.1832 682.297 16.9489 683.282 16.9489C684.267 16.9489 685.129 17.1832 685.868 17.652C686.611 18.1207 687.189 18.7789 687.6 19.6264C688.017 20.474 688.225 21.4659 688.225 22.6023C688.225 23.7292 688.017 24.714 687.6 25.5568C687.189 26.3996 686.611 27.0554 685.868 27.5241C685.129 27.9929 684.267 28.2273 683.282 28.2273ZM683.282 26.7216C684.03 26.7216 684.646 26.5298 685.129 26.1463C685.612 25.7628 685.969 25.2585 686.201 24.6335C686.433 24.0085 686.549 23.3314 686.549 22.6023C686.549 21.8731 686.433 21.1937 686.201 20.5639C685.969 19.9342 685.612 19.4252 685.129 19.0369C684.646 18.6487 684.03 18.4545 683.282 18.4545C682.534 18.4545 681.919 18.6487 681.436 19.0369C680.953 19.4252 680.595 19.9342 680.363 20.5639C680.131 21.1937 680.015 21.8731 680.015 22.6023C680.015 23.3314 680.131 24.0085 680.363 24.6335C680.595 25.2585 680.953 25.7628 681.436 26.1463C681.919 26.5298 682.534 26.7216 683.282 26.7216Z" fill="#122235"/>
<path d="M456.983 3.42114C447.783 3.42114 440.333 11.0843 440.333 20.5264C440.333 29.9685 447.783 37.6317 456.983 37.6317C466.2 37.6317 473.667 29.9685 473.667 20.5264C473.667 11.0843 466.2 3.42114 456.983 3.42114ZM457 34.2106C449.633 34.2106 443.667 28.0869 443.667 20.5264C443.667 12.9659 449.633 6.8422 457 6.8422C464.367 6.8422 470.333 12.9659 470.333 20.5264C470.333 28.0869 464.367 34.2106 457 34.2106Z" fill="#247BA0"/>
<path d="M457.833 11.9736H455.333V22.2368L464.083 27.6249L465.333 25.521L457.833 20.9539V11.9736Z" fill="#247BA0"/>
<path d="M69.4659 18H67.7045C67.6004 17.4934 67.4181 17.0483 67.1577 16.6648C66.902 16.2812 66.5895 15.9593 66.2202 15.6989C65.8556 15.4337 65.4508 15.2348 65.0057 15.1023C64.5606 14.9697 64.0966 14.9034 63.6136 14.9034C62.733 14.9034 61.9351 15.1259 61.2202 15.571C60.5099 16.0161 59.9441 16.6719 59.5227 17.5384C59.1061 18.4048 58.8977 19.4678 58.8977 20.7273C58.8977 21.9867 59.1061 23.0497 59.5227 23.9162C59.9441 24.7827 60.5099 25.4384 61.2202 25.8835C61.9351 26.3286 62.733 26.5511 63.6136 26.5511C64.0966 26.5511 64.5606 26.4848 65.0057 26.3523C65.4508 26.2197 65.8556 26.0232 66.2202 25.7628C66.5895 25.4976 66.902 25.1733 67.1577 24.7898C67.4181 24.4015 67.6004 23.9564 67.7045 23.4545H69.4659C69.3333 24.1979 69.0919 24.8632 68.7415 25.4503C68.3911 26.0374 67.9555 26.5369 67.4347 26.9489C66.9138 27.3561 66.3291 27.6662 65.6804 27.8793C65.0365 28.0923 64.3475 28.1989 63.6136 28.1989C62.3731 28.1989 61.2699 27.8958 60.304 27.2898C59.3381 26.6837 58.5781 25.822 58.0241 24.7045C57.4702 23.5871 57.1932 22.2614 57.1932 20.7273C57.1932 19.1932 57.4702 17.8674 58.0241 16.75C58.5781 15.6326 59.3381 14.7708 60.304 14.1648C61.2699 13.5587 62.3731 13.2557 63.6136 13.2557C64.3475 13.2557 65.0365 13.3622 65.6804 13.5753C66.3291 13.7884 66.9138 14.1009 67.4347 14.5128C67.9555 14.92 68.3911 15.4171 68.7415 16.0043C69.0919 16.5866 69.3333 17.2519 69.4659 18ZM76.6587 28.2273C75.6076 28.2273 74.7009 27.9953 73.9386 27.5312C73.181 27.0625 72.5962 26.4091 72.1843 25.571C71.7771 24.7282 71.5735 23.7481 71.5735 22.6307C71.5735 21.5133 71.7771 20.5284 72.1843 19.6761C72.5962 18.8191 73.1692 18.1515 73.9031 17.6733C74.6417 17.1903 75.5034 16.9489 76.4883 16.9489C77.0565 16.9489 77.6175 17.0436 78.1715 17.233C78.7255 17.4223 79.2298 17.7301 79.6843 18.1562C80.1388 18.5777 80.5011 19.1364 80.771 19.8324C81.0408 20.5284 81.1758 21.3854 81.1758 22.4034V23.1136H72.7667V21.6648H79.4712C79.4712 21.0492 79.3481 20.5 79.1019 20.017C78.8604 19.5341 78.5148 19.1529 78.065 18.8736C77.6199 18.5942 77.0943 18.4545 76.4883 18.4545C75.8207 18.4545 75.243 18.6203 74.7553 18.9517C74.2724 19.2784 73.9007 19.7045 73.6403 20.2301C73.3799 20.7557 73.2496 21.3191 73.2496 21.9205V22.8864C73.2496 23.7102 73.3917 24.4086 73.6758 24.9815C73.9646 25.5497 74.3647 25.983 74.8761 26.2812C75.3874 26.5748 75.9817 26.7216 76.6587 26.7216C77.0991 26.7216 77.4968 26.66 77.8519 26.5369C78.2118 26.4091 78.5219 26.2197 78.7823 25.9688C79.0427 25.7131 79.244 25.3958 79.386 25.017L81.0053 25.4716C80.8349 26.0208 80.5484 26.5038 80.146 26.9205C79.7435 27.3324 79.2463 27.6544 78.6545 27.8864C78.0626 28.1136 77.3974 28.2273 76.6587 28.2273ZM83.7255 28V17.0909H85.3448V18.7386H85.4585C85.6573 18.1989 86.0172 17.7609 86.538 17.4247C87.0588 17.0885 87.646 16.9205 88.2994 16.9205C88.4225 16.9205 88.5763 16.9228 88.761 16.9276C88.9457 16.9323 89.0853 16.9394 89.18 16.9489V18.6534C89.1232 18.6392 88.993 18.6179 88.7894 18.5895C88.5906 18.5563 88.3799 18.5398 88.1573 18.5398C87.627 18.5398 87.1535 18.651 86.7369 18.8736C86.3249 19.0914 85.9982 19.3944 85.7567 19.7827C85.52 20.1662 85.4016 20.6042 85.4016 21.0966V28H83.7255ZM96.5948 17.0909V18.5114H90.9414V17.0909H96.5948ZM92.5891 14.4773H94.2653V24.875C94.2653 25.3485 94.3339 25.7036 94.4712 25.9403C94.6133 26.1723 94.7932 26.3286 95.011 26.4091C95.2335 26.4848 95.4679 26.5227 95.7141 26.5227C95.8988 26.5227 96.0503 26.5133 96.1687 26.4943C96.2871 26.4706 96.3817 26.4517 96.4528 26.4375L96.7937 27.9432C96.68 27.9858 96.5214 28.0284 96.3178 28.071C96.1142 28.1184 95.8562 28.142 95.5437 28.142C95.0702 28.142 94.6062 28.0402 94.1516 27.8366C93.7018 27.633 93.3278 27.3229 93.0295 26.9062C92.7359 26.4896 92.5891 25.964 92.5891 25.3295V14.4773ZM99.1161 28V17.0909H100.792V28H99.1161ZM99.9684 15.2727C99.6417 15.2727 99.36 15.1615 99.1232 14.9389C98.8912 14.7164 98.7752 14.4489 98.7752 14.1364C98.7752 13.8239 98.8912 13.5563 99.1232 13.3338C99.36 13.1113 99.6417 13 99.9684 13C100.295 13 100.574 13.1113 100.806 13.3338C101.043 13.5563 101.162 13.8239 101.162 14.1364C101.162 14.4489 101.043 14.7164 100.806 14.9389C100.574 15.1615 100.295 15.2727 99.9684 15.2727ZM108.72 17.0909V18.5114H102.839V17.0909H108.72ZM104.601 28V15.5852C104.601 14.9602 104.748 14.4394 105.041 14.0227C105.335 13.6061 105.716 13.2936 106.185 13.0852C106.653 12.8769 107.148 12.7727 107.669 12.7727C108.081 12.7727 108.417 12.8059 108.678 12.8722C108.938 12.9384 109.132 13 109.26 13.0568L108.777 14.5057C108.692 14.4773 108.573 14.4418 108.422 14.3991C108.275 14.3565 108.081 14.3352 107.839 14.3352C107.286 14.3352 106.885 14.4749 106.639 14.7543C106.398 15.0336 106.277 15.4432 106.277 15.983V28H104.601ZM111.069 28V17.0909H112.745V28H111.069ZM111.922 15.2727C111.595 15.2727 111.313 15.1615 111.076 14.9389C110.844 14.7164 110.728 14.4489 110.728 14.1364C110.728 13.8239 110.844 13.5563 111.076 13.3338C111.313 13.1113 111.595 13 111.922 13C112.248 13 112.528 13.1113 112.76 13.3338C112.996 13.5563 113.115 13.8239 113.115 14.1364C113.115 14.4489 112.996 14.7164 112.76 14.9389C112.528 15.1615 112.248 15.2727 111.922 15.2727ZM120.247 28.2273C119.224 28.2273 118.344 27.9858 117.605 27.5028C116.866 27.0199 116.298 26.3546 115.901 25.5071C115.503 24.6596 115.304 23.6913 115.304 22.6023C115.304 21.4943 115.508 20.5166 115.915 19.669C116.327 18.8168 116.9 18.1515 117.634 17.6733C118.372 17.1903 119.234 16.9489 120.219 16.9489C120.986 16.9489 121.677 17.0909 122.293 17.375C122.908 17.6591 123.412 18.0568 123.805 18.5682C124.198 19.0795 124.442 19.6761 124.537 20.358H122.861C122.733 19.8608 122.449 19.4205 122.009 19.0369C121.573 18.6487 120.986 18.4545 120.247 18.4545C119.594 18.4545 119.021 18.625 118.528 18.9659C118.041 19.3021 117.66 19.7779 117.385 20.3935C117.115 21.0043 116.98 21.7216 116.98 22.5455C116.98 23.3883 117.113 24.1222 117.378 24.7472C117.648 25.3722 118.027 25.8575 118.514 26.2031C119.007 26.5488 119.584 26.7216 120.247 26.7216C120.683 26.7216 121.078 26.6458 121.433 26.4943C121.788 26.3428 122.089 26.125 122.335 25.8409C122.581 25.5568 122.757 25.2159 122.861 24.8182H124.537C124.442 25.4621 124.208 26.0421 123.834 26.5582C123.464 27.0696 122.974 27.4768 122.364 27.7798C121.758 28.0781 121.052 28.2273 120.247 28.2273ZM130.197 28.2557C129.506 28.2557 128.879 28.1255 128.315 27.8651C127.752 27.5999 127.304 27.2188 126.973 26.7216C126.642 26.2197 126.476 25.6136 126.476 24.9034C126.476 24.2784 126.599 23.7718 126.845 23.3835C127.091 22.9905 127.42 22.6828 127.832 22.4602C128.244 22.2377 128.699 22.072 129.196 21.9631C129.698 21.8494 130.202 21.7595 130.709 21.6932C131.372 21.608 131.909 21.544 132.321 21.5014C132.738 21.4541 133.041 21.3759 133.23 21.267C133.424 21.1581 133.521 20.9687 133.521 20.6989V20.642C133.521 19.9413 133.33 19.3968 132.946 19.0085C132.567 18.6203 131.992 18.4261 131.22 18.4261C130.42 18.4261 129.793 18.6013 129.338 18.9517C128.884 19.3021 128.564 19.6761 128.379 20.0739L126.788 19.5057C127.072 18.8428 127.451 18.3267 127.925 17.9574C128.403 17.5833 128.924 17.3229 129.487 17.1761C130.055 17.0246 130.614 16.9489 131.163 16.9489C131.514 16.9489 131.916 16.9915 132.371 17.0767C132.83 17.1572 133.273 17.3253 133.699 17.581C134.13 17.8366 134.487 18.2225 134.771 18.7386C135.055 19.2547 135.197 19.946 135.197 20.8125V28H133.521V26.5227H133.436C133.322 26.7595 133.133 27.0128 132.868 27.2827C132.603 27.5526 132.25 27.7822 131.81 27.9716C131.369 28.161 130.832 28.2557 130.197 28.2557ZM130.453 26.75C131.116 26.75 131.675 26.6198 132.129 26.3594C132.589 26.099 132.934 25.7628 133.166 25.3509C133.403 24.9389 133.521 24.5057 133.521 24.0511V22.517C133.45 22.6023 133.294 22.6804 133.053 22.7514C132.816 22.8177 132.541 22.8769 132.229 22.929C131.921 22.9763 131.62 23.0189 131.327 23.0568C131.038 23.09 130.804 23.1184 130.624 23.142C130.188 23.1989 129.781 23.2912 129.402 23.419C129.028 23.5421 128.725 23.7292 128.493 23.9801C128.266 24.2263 128.152 24.5625 128.152 24.9886C128.152 25.571 128.367 26.0114 128.798 26.3097C129.234 26.6032 129.786 26.75 130.453 26.75ZM142.376 28.2273C141.467 28.2273 140.664 27.9976 139.968 27.5384C139.272 27.0743 138.728 26.4209 138.335 25.5781C137.942 24.7306 137.745 23.7292 137.745 22.5739C137.745 21.428 137.942 20.4337 138.335 19.5909C138.728 18.7481 139.275 18.0971 139.975 17.6378C140.676 17.1785 141.486 16.9489 142.404 16.9489C143.115 16.9489 143.676 17.0672 144.088 17.304C144.504 17.536 144.822 17.8011 145.039 18.0994C145.262 18.393 145.435 18.6345 145.558 18.8239H145.7V13.4545H147.376V28H145.757V26.3239H145.558C145.435 26.5227 145.26 26.7737 145.032 27.0767C144.805 27.375 144.481 27.6425 144.059 27.8793C143.638 28.1113 143.077 28.2273 142.376 28.2273ZM142.603 26.7216C143.276 26.7216 143.844 26.5464 144.308 26.196C144.772 25.8409 145.125 25.3509 145.366 24.7259C145.608 24.0961 145.728 23.3693 145.728 22.5455C145.728 21.7311 145.61 21.0185 145.373 20.4077C145.136 19.7921 144.786 19.3139 144.322 18.973C143.858 18.6274 143.285 18.4545 142.603 18.4545C141.893 18.4545 141.301 18.6368 140.828 19.0014C140.359 19.3613 140.006 19.8513 139.77 20.4716C139.538 21.0871 139.422 21.7784 139.422 22.5455C139.422 23.322 139.54 24.0275 139.777 24.6619C140.018 25.2917 140.373 25.7936 140.842 26.1676C141.315 26.5369 141.903 26.7216 142.603 26.7216ZM155.11 28.2273C154.126 28.2273 153.261 27.9929 152.518 27.5241C151.779 27.0554 151.202 26.3996 150.785 25.5568C150.373 24.714 150.167 23.7292 150.167 22.6023C150.167 21.4659 150.373 20.474 150.785 19.6264C151.202 18.7789 151.779 18.1207 152.518 17.652C153.261 17.1832 154.126 16.9489 155.11 16.9489C156.095 16.9489 156.957 17.1832 157.696 17.652C158.439 18.1207 159.017 18.7789 159.429 19.6264C159.845 20.474 160.054 21.4659 160.054 22.6023C160.054 23.7292 159.845 24.714 159.429 25.5568C159.017 26.3996 158.439 27.0554 157.696 27.5241C156.957 27.9929 156.095 28.2273 155.11 28.2273ZM155.11 26.7216C155.859 26.7216 156.474 26.5298 156.957 26.1463C157.44 25.7628 157.797 25.2585 158.029 24.6335C158.261 24.0085 158.377 23.3314 158.377 22.6023C158.377 21.8731 158.261 21.1937 158.029 20.5639C157.797 19.9342 157.44 19.4252 156.957 19.0369C156.474 18.6487 155.859 18.4545 155.11 18.4545C154.362 18.4545 153.747 18.6487 153.264 19.0369C152.781 19.4252 152.423 19.9342 152.191 20.5639C151.959 21.1937 151.843 21.8731 151.843 22.6023C151.843 23.3314 151.959 24.0085 152.191 24.6335C152.423 25.2585 152.781 25.7628 153.264 26.1463C153.747 26.5298 154.362 26.7216 155.11 26.7216ZM172.357 28.2273C171.447 28.2273 170.645 27.9976 169.949 27.5384C169.253 27.0743 168.708 26.4209 168.315 25.5781C167.922 24.7306 167.726 23.7292 167.726 22.5739C167.726 21.428 167.922 20.4337 168.315 19.5909C168.708 18.7481 169.255 18.0971 169.956 17.6378C170.657 17.1785 171.466 16.9489 172.385 16.9489C173.095 16.9489 173.656 17.0672 174.068 17.304C174.485 17.536 174.802 17.8011 175.02 18.0994C175.242 18.393 175.415 18.6345 175.538 18.8239H175.68V13.4545H177.357V28H175.737V26.3239H175.538C175.415 26.5227 175.24 26.7737 175.013 27.0767C174.786 27.375 174.461 27.6425 174.04 27.8793C173.618 28.1113 173.057 28.2273 172.357 28.2273ZM172.584 26.7216C173.256 26.7216 173.824 26.5464 174.288 26.196C174.752 25.8409 175.105 25.3509 175.347 24.7259C175.588 24.0961 175.709 23.3693 175.709 22.5455C175.709 21.7311 175.59 21.0185 175.354 20.4077C175.117 19.7921 174.767 19.3139 174.303 18.973C173.839 18.6274 173.266 18.4545 172.584 18.4545C171.874 18.4545 171.282 18.6368 170.808 19.0014C170.339 19.3613 169.987 19.8513 169.75 20.4716C169.518 21.0871 169.402 21.7784 169.402 22.5455C169.402 23.322 169.52 24.0275 169.757 24.6619C169.999 25.2917 170.354 25.7936 170.822 26.1676C171.296 26.5369 171.883 26.7216 172.584 26.7216ZM185.233 28.2273C184.182 28.2273 183.275 27.9953 182.513 27.5312C181.755 27.0625 181.17 26.4091 180.759 25.571C180.351 24.7282 180.148 23.7481 180.148 22.6307C180.148 21.5133 180.351 20.5284 180.759 19.6761C181.17 18.8191 181.743 18.1515 182.477 17.6733C183.216 17.1903 184.078 16.9489 185.062 16.9489C185.631 16.9489 186.192 17.0436 186.746 17.233C187.3 17.4223 187.804 17.7301 188.259 18.1562C188.713 18.5777 189.075 19.1364 189.345 19.8324C189.615 20.5284 189.75 21.3854 189.75 22.4034V23.1136H181.341V21.6648H188.045C188.045 21.0492 187.922 20.5 187.676 20.017C187.435 19.5341 187.089 19.1529 186.639 18.8736C186.194 18.5942 185.669 18.4545 185.062 18.4545C184.395 18.4545 183.817 18.6203 183.33 18.9517C182.847 19.2784 182.475 19.7045 182.214 20.2301C181.954 20.7557 181.824 21.3191 181.824 21.9205V22.8864C181.824 23.7102 181.966 24.4086 182.25 24.9815C182.539 25.5497 182.939 25.983 183.45 26.2812C183.962 26.5748 184.556 26.7216 185.233 26.7216C185.673 26.7216 186.071 26.66 186.426 26.5369C186.786 26.4091 187.096 26.2197 187.357 25.9688C187.617 25.7131 187.818 25.3958 187.96 25.017L189.58 25.4716C189.409 26.0208 189.123 26.5038 188.72 26.9205C188.318 27.3324 187.821 27.6544 187.229 27.8864C186.637 28.1136 185.972 28.2273 185.233 28.2273ZM202.357 28.2273C201.334 28.2273 200.453 27.9858 199.714 27.5028C198.976 27.0199 198.408 26.3546 198.01 25.5071C197.612 24.6596 197.413 23.6913 197.413 22.6023C197.413 21.4943 197.617 20.5166 198.024 19.669C198.436 18.8168 199.009 18.1515 199.743 17.6733C200.482 17.1903 201.343 16.9489 202.328 16.9489C203.095 16.9489 203.786 17.0909 204.402 17.375C205.018 17.6591 205.522 18.0568 205.915 18.5682C206.308 19.0795 206.552 19.6761 206.646 20.358H204.97C204.842 19.8608 204.558 19.4205 204.118 19.0369C203.682 18.6487 203.095 18.4545 202.357 18.4545C201.703 18.4545 201.13 18.625 200.638 18.9659C200.15 19.3021 199.769 19.7779 199.494 20.3935C199.224 21.0043 199.089 21.7216 199.089 22.5455C199.089 23.3883 199.222 24.1222 199.487 24.7472C199.757 25.3722 200.136 25.8575 200.624 26.2031C201.116 26.5488 201.694 26.7216 202.357 26.7216C202.792 26.7216 203.188 26.6458 203.543 26.4943C203.898 26.3428 204.198 26.125 204.445 25.8409C204.691 25.5568 204.866 25.2159 204.97 24.8182H206.646C206.552 25.4621 206.317 26.0421 205.943 26.5582C205.574 27.0696 205.084 27.4768 204.473 27.7798C203.867 28.0781 203.161 28.2273 202.357 28.2273ZM213.528 28.2273C212.544 28.2273 211.679 27.9929 210.936 27.5241C210.197 27.0554 209.62 26.3996 209.203 25.5568C208.791 24.714 208.585 23.7292 208.585 22.6023C208.585 21.4659 208.791 20.474 209.203 19.6264C209.62 18.7789 210.197 18.1207 210.936 17.652C211.679 17.1832 212.544 16.9489 213.528 16.9489C214.513 16.9489 215.375 17.1832 216.114 17.652C216.857 18.1207 217.435 18.7789 217.847 19.6264C218.263 20.474 218.472 21.4659 218.472 22.6023C218.472 23.7292 218.263 24.714 217.847 25.5568C217.435 26.3996 216.857 27.0554 216.114 27.5241C215.375 27.9929 214.513 28.2273 213.528 28.2273ZM213.528 26.7216C214.277 26.7216 214.892 26.5298 215.375 26.1463C215.858 25.7628 216.215 25.2585 216.447 24.6335C216.679 24.0085 216.795 23.3314 216.795 22.6023C216.795 21.8731 216.679 21.1937 216.447 20.5639C216.215 19.9342 215.858 19.4252 215.375 19.0369C214.892 18.6487 214.277 18.4545 213.528 18.4545C212.78 18.4545 212.165 18.6487 211.682 19.0369C211.199 19.4252 210.841 19.9342 210.609 20.5639C210.377 21.1937 210.261 21.8731 210.261 22.6023C210.261 23.3314 210.377 24.0085 210.609 24.6335C210.841 25.2585 211.199 25.7628 211.682 26.1463C212.165 26.5298 212.78 26.7216 213.528 26.7216ZM222.706 21.4375V28H221.03V17.0909H222.65V18.7955H222.792C223.047 18.2415 223.435 17.7964 223.956 17.4602C224.477 17.1193 225.15 16.9489 225.973 16.9489C226.712 16.9489 227.358 17.1004 227.912 17.4034C228.466 17.7017 228.897 18.1562 229.205 18.767C229.513 19.3731 229.667 20.1402 229.667 21.0682V28H227.99V21.1818C227.99 20.3248 227.768 19.6572 227.323 19.179C226.878 18.696 226.267 18.4545 225.49 18.4545C224.955 18.4545 224.477 18.5705 224.056 18.8026C223.639 19.0346 223.31 19.3731 223.069 19.8182C222.827 20.2633 222.706 20.803 222.706 21.4375ZM237.161 28.2273C236.138 28.2273 235.258 27.9858 234.519 27.5028C233.781 27.0199 233.212 26.3546 232.815 25.5071C232.417 24.6596 232.218 23.6913 232.218 22.6023C232.218 21.4943 232.422 20.5166 232.829 19.669C233.241 18.8168 233.814 18.1515 234.548 17.6733C235.286 17.1903 236.148 16.9489 237.133 16.9489C237.9 16.9489 238.591 17.0909 239.207 17.375C239.822 17.6591 240.326 18.0568 240.719 18.5682C241.112 19.0795 241.356 19.6761 241.451 20.358H239.775C239.647 19.8608 239.363 19.4205 238.923 19.0369C238.487 18.6487 237.9 18.4545 237.161 18.4545C236.508 18.4545 235.935 18.625 235.442 18.9659C234.955 19.3021 234.574 19.7779 234.299 20.3935C234.029 21.0043 233.894 21.7216 233.894 22.5455C233.894 23.3883 234.027 24.1222 234.292 24.7472C234.562 25.3722 234.941 25.8575 235.428 26.2031C235.921 26.5488 236.498 26.7216 237.161 26.7216C237.597 26.7216 237.992 26.6458 238.347 26.4943C238.702 26.3428 239.003 26.125 239.249 25.8409C239.496 25.5568 239.671 25.2159 239.775 24.8182H241.451C241.356 25.4621 241.122 26.0421 240.748 26.5582C240.379 27.0696 239.888 27.4768 239.278 27.7798C238.672 28.0781 237.966 28.2273 237.161 28.2273ZM245.577 13.4545V28H243.901V13.4545H245.577ZM255.522 23.5398V17.0909H257.199V28H255.522V26.1534H255.409C255.153 26.7074 254.755 27.1785 254.216 27.5668C253.676 27.9503 252.994 28.142 252.17 28.142C251.488 28.142 250.882 27.9929 250.352 27.6946C249.822 27.3916 249.405 26.937 249.102 26.331C248.799 25.7202 248.647 24.9508 248.647 24.0227V17.0909H250.324V23.9091C250.324 24.7045 250.546 25.339 250.991 25.8125C251.441 26.286 252.014 26.5227 252.71 26.5227C253.127 26.5227 253.55 26.4162 253.981 26.2031C254.417 25.9901 254.781 25.6634 255.075 25.223C255.373 24.7827 255.522 24.2216 255.522 23.5398ZM267.996 19.5341L266.49 19.9602C266.395 19.7093 266.256 19.4654 266.071 19.2287C265.891 18.9872 265.645 18.7884 265.332 18.6321C265.02 18.4759 264.62 18.3977 264.132 18.3977C263.464 18.3977 262.908 18.5516 262.463 18.8594C262.023 19.1624 261.803 19.5483 261.803 20.017C261.803 20.4337 261.954 20.7628 262.257 21.0043C262.56 21.2457 263.034 21.447 263.678 21.608L265.297 22.0057C266.272 22.2424 266.999 22.6046 267.477 23.0923C267.955 23.5753 268.195 24.1979 268.195 24.9602C268.195 25.5852 268.015 26.1439 267.655 26.6364C267.3 27.1288 266.803 27.517 266.163 27.8011C265.524 28.0852 264.781 28.2273 263.933 28.2273C262.821 28.2273 261.9 27.9858 261.17 27.5028C260.441 27.0199 259.98 26.3144 259.786 25.3864L261.376 24.9886C261.528 25.5758 261.814 26.0161 262.236 26.3097C262.662 26.6032 263.218 26.75 263.905 26.75C264.686 26.75 265.306 26.5843 265.766 26.2528C266.23 25.9167 266.462 25.5142 266.462 25.0455C266.462 24.6667 266.329 24.3494 266.064 24.0938C265.799 23.8333 265.392 23.6392 264.842 23.5114L263.024 23.0852C262.025 22.8485 261.291 22.4815 260.822 21.9844C260.358 21.4825 260.126 20.8551 260.126 20.1023C260.126 19.4867 260.299 18.9422 260.645 18.4688C260.995 17.9953 261.471 17.6236 262.072 17.3537C262.679 17.0838 263.365 16.9489 264.132 16.9489C265.212 16.9489 266.059 17.1856 266.675 17.6591C267.295 18.1326 267.735 18.7576 267.996 19.5341ZM273.928 28.2557C273.237 28.2557 272.609 28.1255 272.046 27.8651C271.482 27.5999 271.035 27.2188 270.703 26.7216C270.372 26.2197 270.206 25.6136 270.206 24.9034C270.206 24.2784 270.329 23.7718 270.576 23.3835C270.822 22.9905 271.151 22.6828 271.563 22.4602C271.975 22.2377 272.429 22.072 272.926 21.9631C273.428 21.8494 273.933 21.7595 274.439 21.6932C275.102 21.608 275.64 21.544 276.051 21.5014C276.468 21.4541 276.771 21.3759 276.961 21.267C277.155 21.1581 277.252 20.9687 277.252 20.6989V20.642C277.252 19.9413 277.06 19.3968 276.676 19.0085C276.298 18.6203 275.722 18.4261 274.951 18.4261C274.15 18.4261 273.523 18.6013 273.069 18.9517C272.614 19.3021 272.294 19.6761 272.11 20.0739L270.519 19.5057C270.803 18.8428 271.182 18.3267 271.655 17.9574C272.133 17.5833 272.654 17.3229 273.218 17.1761C273.786 17.0246 274.345 16.9489 274.894 16.9489C275.244 16.9489 275.647 16.9915 276.101 17.0767C276.56 17.1572 277.003 17.3253 277.429 17.581C277.86 17.8366 278.218 18.2225 278.502 18.7386C278.786 19.2547 278.928 19.946 278.928 20.8125V28H277.252V26.5227H277.167C277.053 26.7595 276.864 27.0128 276.598 27.2827C276.333 27.5526 275.98 27.7822 275.54 27.9716C275.1 28.161 274.562 28.2557 273.928 28.2557ZM274.184 26.75C274.846 26.75 275.405 26.6198 275.86 26.3594C276.319 26.099 276.665 25.7628 276.897 25.3509C277.133 24.9389 277.252 24.5057 277.252 24.0511V22.517C277.181 22.6023 277.025 22.6804 276.783 22.7514C276.546 22.8177 276.272 22.8769 275.959 22.929C275.651 22.9763 275.351 23.0189 275.057 23.0568C274.768 23.09 274.534 23.1184 274.354 23.142C273.918 23.1989 273.511 23.2912 273.132 23.419C272.758 23.5421 272.455 23.7292 272.223 23.9801C271.996 24.2263 271.882 24.5625 271.882 24.9886C271.882 25.571 272.098 26.0114 272.529 26.3097C272.964 26.6032 273.516 26.75 274.184 26.75ZM272.82 15.7841L271.513 15.7273C271.513 15.0028 271.719 14.411 272.131 13.9517C272.548 13.4877 273.061 13.2557 273.672 13.2557C273.942 13.2557 274.181 13.303 274.39 13.3977C274.598 13.4877 274.797 13.5919 274.986 13.7102C275.176 13.8286 275.37 13.9351 275.569 14.0298C275.772 14.1198 276.002 14.1648 276.257 14.1648C276.527 14.1648 276.755 14.0606 276.939 13.8523C277.129 13.6392 277.223 13.3835 277.223 13.0852L278.502 13.1989C278.502 13.9375 278.293 14.5246 277.877 14.9602C277.465 15.3958 276.953 15.6136 276.343 15.6136C276.016 15.6136 275.746 15.5687 275.533 15.4787C275.32 15.384 275.131 15.2775 274.965 15.1591C274.799 15.0407 274.624 14.9366 274.439 14.8466C274.255 14.7519 274.027 14.7045 273.757 14.7045C273.488 14.7045 273.263 14.8111 273.083 15.0241C272.908 15.2325 272.82 15.4858 272.82 15.7841ZM286.419 28.2273C285.434 28.2273 284.57 27.9929 283.827 27.5241C283.088 27.0554 282.51 26.3996 282.094 25.5568C281.682 24.714 281.476 23.7292 281.476 22.6023C281.476 21.4659 281.682 20.474 282.094 19.6264C282.51 18.7789 283.088 18.1207 283.827 17.652C284.57 17.1832 285.434 16.9489 286.419 16.9489C287.404 16.9489 288.266 17.1832 289.004 17.652C289.748 18.1207 290.325 18.7789 290.737 19.6264C291.154 20.474 291.362 21.4659 291.362 22.6023C291.362 23.7292 291.154 24.714 290.737 25.5568C290.325 26.3996 289.748 27.0554 289.004 27.5241C288.266 27.9929 287.404 28.2273 286.419 28.2273ZM286.419 26.7216C287.167 26.7216 287.783 26.5298 288.266 26.1463C288.749 25.7628 289.106 25.2585 289.338 24.6335C289.57 24.0085 289.686 23.3314 289.686 22.6023C289.686 21.8731 289.57 21.1937 289.338 20.5639C289.106 19.9342 288.749 19.4252 288.266 19.0369C287.783 18.6487 287.167 18.4545 286.419 18.4545C285.671 18.4545 285.055 18.6487 284.572 19.0369C284.089 19.4252 283.732 19.9342 283.5 20.5639C283.268 21.1937 283.152 21.8731 283.152 22.6023C283.152 23.3314 283.268 24.0085 283.5 24.6335C283.732 25.2585 284.089 25.7628 284.572 26.1463C285.055 26.5298 285.671 26.7216 286.419 26.7216Z" fill="#122235"/>
<path d="M31.576 15.8987C32.9947 15.898 34.3834 16.304 35.5753 17.0678C36.7672 17.8317 37.7117 18.9209 38.2952 20.2048C38.8787 21.4886 39.0765 22.9124 38.8648 24.3051C38.6531 25.6978 38.0409 27.0002 37.1017 28.0559V36.4678C37.1022 36.7026 37.042 36.9336 36.9267 37.1387C36.8115 37.3438 36.6452 37.516 36.4437 37.639C36.2422 37.7619 36.0123 37.8315 35.776 37.841C35.5397 37.8504 35.3049 37.7995 35.0941 37.693L34.9283 37.5925L31.576 35.2664L28.2237 37.5925C28.0301 37.7267 27.8051 37.8094 27.5701 37.8327C27.3352 37.856 27.0981 37.8191 26.8816 37.7256C26.6651 37.632 26.4763 37.4849 26.3334 37.2984C26.1904 37.1118 26.098 36.892 26.0649 36.6598L26.0521 36.4678V28.0522C25.1142 26.9965 24.503 25.6946 24.2919 24.3027C24.0807 22.9108 24.2786 21.4879 24.8618 20.2048C25.445 18.9218 26.3886 17.833 27.5796 17.0692C28.7705 16.3054 30.1582 15.899 31.576 15.8987ZM34.3389 29.9979C33.461 30.3504 32.5229 30.531 31.576 30.5301C30.6291 30.531 29.6909 30.3504 28.8131 29.9979V33.8363L30.7858 32.4703C30.9877 32.3298 31.2239 32.2455 31.4697 32.2262C31.7156 32.2069 31.9621 32.2533 32.1838 32.3606L32.368 32.4703L34.3389 33.8363V29.9979ZM33.8784 3.10522C35.1683 3.10516 36.4096 3.59365 37.3491 4.47106C38.2887 5.34847 38.8557 6.54868 38.9345 7.8269L38.9437 8.13412L38.9455 17.7274C38.1985 16.7401 37.2589 15.9123 36.1826 15.2934L36.1808 8.13412C36.181 7.56822 35.9699 7.02233 35.5881 6.60211C35.2063 6.18188 34.6811 5.91718 34.1141 5.85923L33.8784 5.84826H7.17051C6.60051 5.848 6.05068 6.05766 5.62741 6.43668C5.20414 6.8157 4.93753 7.33712 4.87916 7.90005L4.86811 8.13412V25.5067C4.86811 26.6898 5.77433 27.6645 6.93474 27.7797L7.17051 27.7925L23.6041 27.7943L23.8307 28.1656L24.0775 28.524L24.2083 28.6959L24.2064 30.5356H7.17051C5.88034 30.5356 4.63877 30.0468 3.69918 29.1691C2.75959 28.2913 2.19278 27.0906 2.11443 25.812L2.10522 25.5067V8.13412C2.10516 6.85351 2.59719 5.62112 3.48094 4.68832C4.3647 3.75553 5.5736 3.1926 6.86107 3.11437L7.17051 3.10522H33.8784ZM31.576 18.6418C30.3545 18.6418 29.183 19.1235 28.3192 19.9811C27.4555 20.8386 26.9703 22.0017 26.9703 23.2144C26.9703 24.4271 27.4555 25.5902 28.3192 26.4477C29.183 27.3053 30.3545 27.787 31.576 27.787C32.7975 27.787 33.969 27.3053 34.8327 26.4477C35.6965 25.5902 36.1817 24.4271 36.1817 23.2144C36.1817 22.0017 35.6965 20.8386 34.8327 19.9811C33.969 19.1235 32.7975 18.6418 31.576 18.6418ZM19.143 20.4705C19.493 20.4706 19.8299 20.6026 20.0857 20.8398C20.3414 21.077 20.497 21.4018 20.5208 21.7485C20.5447 22.0952 20.4351 22.4379 20.2142 22.7075C19.9933 22.977 19.6776 23.1533 19.3309 23.2007L19.143 23.2135H10.8544C10.5043 23.2134 10.1674 23.0814 9.91167 22.8441C9.65592 22.6069 9.50041 22.2821 9.47655 21.9354C9.45269 21.5888 9.56227 21.246 9.78315 20.9764C10.004 20.7069 10.3197 20.5306 10.6665 20.4833L10.8544 20.4705H19.143ZM30.1945 10.4127C30.5445 10.4128 30.8815 10.5448 31.1372 10.782C31.393 11.0192 31.5485 11.344 31.5723 11.6907C31.5962 12.0374 31.4866 12.3801 31.2657 12.6497C31.0449 12.9193 30.7292 13.0955 30.3824 13.1429L30.1945 13.1557H10.8544C10.5043 13.1556 10.1674 13.0236 9.91167 12.7864C9.65592 12.5491 9.50041 12.2243 9.47655 11.8777C9.45269 11.531 9.56227 11.1882 9.78315 10.9187C10.004 10.6491 10.3197 10.4728 10.6665 10.4255L10.8544 10.4127H30.1945Z" fill="#247BA0"/>
</svg>
